<?xml version="1.0" encoding="UTF-8" standalone="no"?>
<!DOCTYPE svg PUBLIC "-//W3C//DTD SVG 1.1//EN"
 "http://www.w3.org/Graphics/SVG/1.1/DTD/svg11.dtd">
<!-- Generated by graphviz version 2.38.0 (20140413.2041)
 -->
<!-- Title: Beziehungen Pages: 1 -->
<svg width="742pt" height="336pt"
 viewBox="0.00 0.00 741.59 336.00" xmlns="http://www.w3.org/2000/svg" xmlns:xlink="http://www.w3.org/1999/xlink">
<g id="graph0" class="graph" transform="scale(1 1) rotate(0) translate(4 332)">
<title>Beziehungen</title>
<polygon fill="white" stroke="none" points="-4,4 -4,-332 737.589,-332 737.589,4 -4,4"/>
<!-- Edge -->
<g id="node1" class="node"><title>Edge</title>
<ellipse fill="none" stroke="black" cx="466.096" cy="-310" rx="28.6953" ry="18"/>
<text text-anchor="middle" x="466.096" y="-306.3" font-family="Times,serif" font-size="14.00">Edge</text>
</g>
<!-- Edge&#45;&gt;Edge -->
<g id="edge1" class="edge"><title>Edge&#45;&gt;Edge</title>
<path fill="none" stroke="black" d="M492.911,-316.709C503.666,-317.088 512.693,-314.852 512.693,-310 512.693,-306.816 508.806,-304.759 503.093,-303.827"/>
<polygon fill="black" stroke="black" points="503.081,-300.322 492.911,-303.291 502.713,-307.312 503.081,-300.322"/>
<text text-anchor="middle" x="523.693" y="-306.3" font-family="Times,serif" font-size="14.00">l/Nt</text>
</g>
<!-- Node -->
<g id="node2" class="node"><title>Node</title>
<ellipse fill="none" stroke="black" cx="384.096" cy="-237" rx="29.795" ry="18"/>
<text text-anchor="middle" x="384.096" y="-233.3" font-family="Times,serif" font-size="14.00">Node</text>
</g>
<!-- Edge&#45;&gt;Node -->
<g id="edge2" class="edge"><title>Edge&#45;&gt;Node</title>
<path fill="none" stroke="black" d="M449.895,-294.973C438.068,-284.732 421.83,-270.672 408.444,-259.082"/>
<polygon fill="black" stroke="black" points="410.394,-256.141 400.543,-252.241 405.812,-261.433 410.394,-256.141"/>
</g>
<!-- NodeEdge_Edge -->
<g id="node6" class="node"><title>NodeEdge_Edge</title>
<ellipse fill="none" stroke="black" cx="266.096" cy="-237" rx="70.3881" ry="18"/>
<text text-anchor="middle" x="266.096" y="-233.3" font-family="Times,serif" font-size="14.00">NodeEdge_Edge</text>
</g>
<!-- Edge&#45;&gt;NodeEdge_Edge -->
<g id="edge7" class="edge"><title>Edge&#45;&gt;NodeEdge_Edge</title>
<path fill="none" stroke="black" d="M441.572,-300.294C410.254,-289.176 355.324,-269.676 315.244,-255.448"/>
<polygon fill="black" stroke="black" points="316.249,-252.09 305.654,-252.043 313.907,-258.687 316.249,-252.09"/>
</g>
<!-- EdgeNode_Edge -->
<g id="node7" class="node"><title>EdgeNode_Edge</title>
<ellipse fill="none" stroke="black" cx="502.096" cy="-237" rx="70.3881" ry="18"/>
<text text-anchor="middle" x="502.096" y="-233.3" font-family="Times,serif" font-size="14.00">EdgeNode_Edge</text>
</g>
<!-- Edge&#45;&gt;EdgeNode_Edge -->
<g id="edge8" class="edge"><title>Edge&#45;&gt;EdgeNode_Edge</title>
<path fill="none" stroke="black" d="M474.445,-292.533C478.745,-284.053 484.088,-273.516 488.927,-263.972"/>
<polygon fill="black" stroke="black" points="492.141,-265.373 493.541,-254.871 485.897,-262.207 492.141,-265.373"/>
</g>
<!-- NodeNode_Edge -->
<g id="node8" class="node"><title>NodeNode_Edge</title>
<ellipse fill="none" stroke="black" cx="662.096" cy="-237" rx="71.4873" ry="18"/>
<text text-anchor="middle" x="662.096" y="-233.3" font-family="Times,serif" font-size="14.00">NodeNode_Edge</text>
</g>
<!-- Edge&#45;&gt;NodeNode_Edge -->
<g id="edge9" class="edge"><title>Edge&#45;&gt;NodeNode_Edge</title>
<path fill="none" stroke="black" d="M490.523,-300.151C521.174,-289.048 574.454,-269.748 613.529,-255.593"/>
<polygon fill="black" stroke="black" points="614.924,-258.81 623.134,-252.114 612.54,-252.229 614.924,-258.81"/>
</g>
<!-- Net -->
<g id="node3" class="node"><title>Net</title>
<ellipse fill="none" stroke="black" cx="405.096" cy="-91" rx="27" ry="18"/>
<text text-anchor="middle" x="405.096" y="-87.3" font-family="Times,serif" font-size="14.00">Net</text>
</g>
<!-- Node&#45;&gt;Net -->
<g id="edge3" class="edge"><title>Node&#45;&gt;Net</title>
<path fill="none" stroke="black" d="M393.164,-219.541C398.375,-209.124 404.406,-195.179 407.096,-182 411.334,-161.232 410.521,-137.21 408.818,-119.209"/>
<polygon fill="black" stroke="black" points="412.281,-118.68 407.713,-109.121 405.323,-119.442 412.281,-118.68"/>
</g>
<!-- Layer -->
<g id="node5" class="node"><title>Layer</title>
<ellipse fill="none" stroke="black" cx="367.096" cy="-164" rx="31.3957" ry="18"/>
<text text-anchor="middle" x="367.096" y="-160.3" font-family="Times,serif" font-size="14.00">Layer</text>
</g>
<!-- Node&#45;&gt;Layer -->
<g id="edge5" class="edge"><title>Node&#45;&gt;Layer</title>
<path fill="none" stroke="black" d="M379.981,-218.813C378.039,-210.702 375.676,-200.836 373.507,-191.777"/>
<polygon fill="black" stroke="black" points="376.905,-190.939 371.173,-182.029 370.098,-192.569 376.905,-190.939"/>
</g>
<!-- MotorNode -->
<g id="node12" class="node"><title>MotorNode</title>
<ellipse fill="none" stroke="black" cx="264.096" cy="-164" rx="51.9908" ry="18"/>
<text text-anchor="middle" x="264.096" y="-160.3" font-family="Times,serif" font-size="14.00">MotorNode</text>
</g>
<!-- Node&#45;&gt;MotorNode -->
<g id="edge13" class="edge"><title>Node&#45;&gt;MotorNode</title>
<path fill="none" stroke="black" d="M363.467,-223.795C345.525,-213.179 319.173,-197.587 298.113,-185.127"/>
<polygon fill="black" stroke="black" points="299.841,-182.082 289.452,-180.002 296.276,-188.107 299.841,-182.082"/>
</g>
<!-- PyramidalNode -->
<g id="node13" class="node"><title>PyramidalNode</title>
<ellipse fill="none" stroke="black" cx="124.096" cy="-164" rx="66.0889" ry="18"/>
<text text-anchor="middle" x="124.096" y="-160.3" font-family="Times,serif" font-size="14.00">PyramidalNode</text>
</g>
<!-- Node&#45;&gt;PyramidalNode -->
<g id="edge15" class="edge"><title>Node&#45;&gt;PyramidalNode</title>
<path fill="none" stroke="black" d="M361.255,-225.267C356.013,-223.022 350.415,-220.794 345.096,-219 315.589,-209.046 238.584,-190.867 183.789,-178.371"/>
<polygon fill="black" stroke="black" points="184.36,-174.912 173.832,-176.108 182.808,-181.738 184.36,-174.912"/>
</g>
<!-- Set -->
<g id="node4" class="node"><title>Set</title>
<ellipse fill="none" stroke="black" cx="405.096" cy="-18" rx="27" ry="18"/>
<text text-anchor="middle" x="405.096" y="-14.3" font-family="Times,serif" font-size="14.00">Set</text>
</g>
<!-- Net&#45;&gt;Set -->
<g id="edge4" class="edge"><title>Net&#45;&gt;Set</title>
<path fill="none" stroke="black" d="M405.096,-72.8129C405.096,-64.7895 405.096,-55.0475 405.096,-46.0691"/>
<polygon fill="black" stroke="black" points="408.596,-46.0288 405.096,-36.0288 401.596,-46.0289 408.596,-46.0288"/>
</g>
<!-- Layer&#45;&gt;Net -->
<g id="edge6" class="edge"><title>Layer&#45;&gt;Net</title>
<path fill="none" stroke="black" d="M375.909,-146.533C380.561,-137.84 386.37,-126.987 391.578,-117.256"/>
<polygon fill="black" stroke="black" points="394.697,-118.846 396.33,-108.378 388.525,-115.543 394.697,-118.846"/>
</g>
<!-- InputNode -->
<g id="node9" class="node"><title>InputNode</title>
<ellipse fill="none" stroke="black" cx="48.0957" cy="-310" rx="48.1917" ry="18"/>
<text text-anchor="middle" x="48.0957" y="-306.3" font-family="Times,serif" font-size="14.00">InputNode</text>
</g>
<!-- InnerNode -->
<g id="node10" class="node"><title>InnerNode</title>
<ellipse fill="none" stroke="black" cx="92.0957" cy="-237" rx="48.1917" ry="18"/>
<text text-anchor="middle" x="92.0957" y="-233.3" font-family="Times,serif" font-size="14.00">InnerNode</text>
</g>
<!-- InputNode&#45;&gt;InnerNode -->
<g id="edge10" class="edge"><title>InputNode&#45;&gt;InnerNode</title>
<path fill="none" stroke="black" d="M58.5231,-292.174C63.8384,-283.597 70.4136,-272.987 76.3323,-263.437"/>
<polygon fill="black" stroke="black" points="79.4505,-265.049 81.7432,-254.705 73.5004,-261.362 79.4505,-265.049"/>
</g>
<!-- InnerNode&#45;&gt;PyramidalNode -->
<g id="edge14" class="edge"><title>InnerNode&#45;&gt;PyramidalNode</title>
<path fill="none" stroke="black" d="M99.6793,-219.174C103.41,-210.896 107.995,-200.723 112.18,-191.438"/>
<polygon fill="black" stroke="black" points="115.426,-192.753 116.344,-182.198 109.044,-189.877 115.426,-192.753"/>
</g>
<!-- OutputNode -->
<g id="node11" class="node"><title>OutputNode</title>
<ellipse fill="none" stroke="black" cx="168.096" cy="-310" rx="53.8905" ry="18"/>
<text text-anchor="middle" x="168.096" y="-306.3" font-family="Times,serif" font-size="14.00">OutputNode</text>
</g>
<!-- OutputNode&#45;&gt;InnerNode -->
<g id="edge11" class="edge"><title>OutputNode&#45;&gt;InnerNode</title>
<path fill="none" stroke="black" d="M150.85,-292.889C140.744,-283.448 127.814,-271.368 116.657,-260.945"/>
<polygon fill="black" stroke="black" points="118.97,-258.316 109.273,-254.047 114.191,-263.431 118.97,-258.316"/>
</g>
<!-- OutputNode&#45;&gt;MotorNode -->
<g id="edge12" class="edge"><title>OutputNode&#45;&gt;MotorNode</title>
<path fill="none" stroke="black" d="M168.06,-291.999C168.792,-272.773 172.4,-241.254 187.096,-219 196.633,-204.557 211.474,-192.817 225.591,-184.017"/>
<polygon fill="black" stroke="black" points="227.398,-187.015 234.233,-178.92 223.842,-180.985 227.398,-187.015"/>
</g>
</g>
</svg>
