<?xml version="1.0" encoding="UTF-8" standalone="no"?>
<!DOCTYPE svg PUBLIC "-//W3C//DTD SVG 1.1//EN"
 "http://www.w3.org/Graphics/SVG/1.1/DTD/svg11.dtd">
<!-- Generated by graphviz version 2.38.0 (20140413.2041)
 -->
<!-- Title: Beziehungen Pages: 1 -->
<svg width="148pt" height="218pt"
 viewBox="0.00 0.00 147.55 218.00" xmlns="http://www.w3.org/2000/svg" xmlns:xlink="http://www.w3.org/1999/xlink">
<g id="graph0" class="graph" transform="scale(1 1) rotate(0) translate(4 214)">
<title>Beziehungen</title>
<polygon fill="white" stroke="none" points="-4,4 -4,-214 143.547,-214 143.547,4 -4,4"/>
<!-- Jutta -->
<g id="node1" class="node"><title>Jutta</title>
<ellipse fill="none" stroke="black" cx="108.547" cy="-192" rx="27.0966" ry="18"/>
<text text-anchor="middle" x="108.547" y="-188.3" font-family="Times,serif" font-size="14.00">Jutta</text>
</g>
<!-- Franz -->
<g id="node2" class="node"><title>Franz</title>
<ellipse fill="none" stroke="black" cx="30.5473" cy="-105" rx="30.5947" ry="18"/>
<text text-anchor="middle" x="30.5473" y="-101.3" font-family="Times,serif" font-size="14.00">Franz</text>
</g>
<!-- Jutta&#45;&gt;Franz -->
<g id="edge1" class="edge"><title>Jutta&#45;&gt;Franz</title>
<path fill="none" stroke="black" d="M81.533,-188.077C61.2798,-184.31 34.8538,-175.696 21.5473,-156 16.8435,-149.038 16.8869,-140.333 18.7957,-132.147"/>
<polygon fill="black" stroke="black" points="22.1457,-133.162 21.8555,-122.571 15.4778,-131.031 22.1457,-133.162"/>
<text text-anchor="middle" x="34.0473" y="-144.8" font-family="Times,serif" font-size="14.00">liebt</text>
</g>
<!-- Franz&#45;&gt;Jutta -->
<g id="edge4" class="edge"><title>Franz&#45;&gt;Jutta</title>
<path fill="none" stroke="black" d="M44.5034,-121.209C56.6616,-134.458 74.4474,-153.84 88.1925,-168.818"/>
<polygon fill="black" stroke="black" points="85.6207,-171.193 94.9607,-176.194 90.7783,-166.46 85.6207,-171.193"/>
<text text-anchor="middle" x="87.0473" y="-144.8" font-family="Times,serif" font-size="14.00">liebt</text>
</g>
<!-- Bernd -->
<g id="node3" class="node"><title>Bernd</title>
<ellipse fill="none" stroke="black" cx="105.547" cy="-18" rx="32.4942" ry="18"/>
<text text-anchor="middle" x="105.547" y="-14.3" font-family="Times,serif" font-size="14.00">Bernd</text>
</g>
<!-- Franz&#45;&gt;Bernd -->
<g id="edge3" class="edge"><title>Franz&#45;&gt;Bernd</title>
<path fill="none" stroke="black" d="M23.3739,-87.4269C20.0582,-77.0305 18.1126,-63.7901 24.5473,-54 33.6581,-40.1383 49.5531,-31.7411 64.8632,-26.6657"/>
<polygon fill="black" stroke="black" points="66.1381,-29.94 74.7625,-23.7861 64.1829,-23.2186 66.1381,-29.94"/>
<text text-anchor="middle" x="38.5473" y="-57.8" font-family="Times,serif" font-size="14.00">hasst</text>
</g>
<!-- Bernd&#45;&gt;Jutta -->
<g id="edge5" class="edge"><title>Bernd&#45;&gt;Jutta</title>
<path fill="none" stroke="black" d="M109.646,-35.9884C110.83,-41.6782 111.961,-48.0801 112.547,-54 116.294,-91.8365 113.805,-135.814 111.405,-163.526"/>
<polygon fill="black" stroke="black" points="107.905,-163.37 110.469,-173.649 114.875,-164.014 107.905,-163.37"/>
<text text-anchor="middle" x="127.047" y="-101.3" font-family="Times,serif" font-size="14.00">liebt</text>
</g>
<!-- Bernd&#45;&gt;Franz -->
<g id="edge2" class="edge"><title>Bernd&#45;&gt;Franz</title>
<path fill="none" stroke="black" d="M91.7475,-34.6398C80.2553,-47.6642 63.7313,-66.3915 50.7492,-81.1045"/>
<polygon fill="black" stroke="black" points="47.9476,-78.9896 43.9558,-88.8037 53.1965,-83.621 47.9476,-78.9896"/>
<text text-anchor="middle" x="86.5473" y="-57.8" font-family="Times,serif" font-size="14.00">hasst</text>
</g>
</g>
</svg>
