<?xml version="1.0" encoding="UTF-8" standalone="no"?>
<!DOCTYPE svg PUBLIC "-//W3C//DTD SVG 1.1//EN"
 "http://www.w3.org/Graphics/SVG/1.1/DTD/svg11.dtd">
<!-- Generated by graphviz version 2.38.0 (20140413.2041)
 -->
<!-- Title: %3 Pages: 1 -->
<svg width="362pt" height="188pt"
 viewBox="0.00 0.00 362.24 188.00" xmlns="http://www.w3.org/2000/svg" xmlns:xlink="http://www.w3.org/1999/xlink">
<g id="graph0" class="graph" transform="scale(1 1) rotate(0) translate(4 184)">
<title>%3</title>
<polygon fill="white" stroke="none" points="-4,4 -4,-184 358.239,-184 358.239,4 -4,4"/>
<!-- Node -->
<g id="node1" class="node"><title>Node</title>
<ellipse fill="none" stroke="black" cx="173.945" cy="-162" rx="29.795" ry="18"/>
<text text-anchor="middle" x="173.945" y="-158.3" font-family="Times,serif" font-size="14.00">Node</text>
</g>
<!-- OutputNode -->
<g id="node2" class="node"><title>OutputNode</title>
<ellipse fill="none" stroke="black" cx="53.9452" cy="-90" rx="53.8905" ry="18"/>
<text text-anchor="middle" x="53.9452" y="-86.3" font-family="Times,serif" font-size="14.00">OutputNode</text>
</g>
<!-- Node&#45;&gt;OutputNode -->
<g id="edge1" class="edge"><title>Node&#45;&gt;OutputNode</title>
<path fill="none" stroke="black" d="M153.316,-148.967C135.491,-138.569 109.366,-123.329 88.3763,-111.085"/>
<polygon fill="black" stroke="black" points="90.1356,-108.059 79.7343,-106.044 86.6085,-114.106 90.1356,-108.059"/>
</g>
<!-- InputNode -->
<g id="node4" class="node"><title>InputNode</title>
<ellipse fill="none" stroke="black" cx="173.945" cy="-90" rx="48.1917" ry="18"/>
<text text-anchor="middle" x="173.945" y="-86.3" font-family="Times,serif" font-size="14.00">InputNode</text>
</g>
<!-- Node&#45;&gt;InputNode -->
<g id="edge3" class="edge"><title>Node&#45;&gt;InputNode</title>
<path fill="none" stroke="black" d="M173.945,-143.697C173.945,-135.983 173.945,-126.712 173.945,-118.112"/>
<polygon fill="black" stroke="black" points="177.445,-118.104 173.945,-108.104 170.445,-118.104 177.445,-118.104"/>
</g>
<!-- InnerNode -->
<g id="node5" class="node"><title>InnerNode</title>
<ellipse fill="none" stroke="black" cx="287.945" cy="-90" rx="48.1917" ry="18"/>
<text text-anchor="middle" x="287.945" y="-86.3" font-family="Times,serif" font-size="14.00">InnerNode</text>
</g>
<!-- Node&#45;&gt;InnerNode -->
<g id="edge4" class="edge"><title>Node&#45;&gt;InnerNode</title>
<path fill="none" stroke="black" d="M194.064,-148.647C211.026,-138.231 235.623,-123.127 255.386,-110.993"/>
<polygon fill="black" stroke="black" points="257.39,-113.869 264.081,-105.654 253.728,-107.904 257.39,-113.869"/>
</g>
<!-- MotorNode -->
<g id="node3" class="node"><title>MotorNode</title>
<ellipse fill="none" stroke="black" cx="53.9452" cy="-18" rx="51.9908" ry="18"/>
<text text-anchor="middle" x="53.9452" y="-14.3" font-family="Times,serif" font-size="14.00">MotorNode</text>
</g>
<!-- OutputNode&#45;&gt;MotorNode -->
<g id="edge2" class="edge"><title>OutputNode&#45;&gt;MotorNode</title>
<path fill="none" stroke="black" d="M53.9452,-71.6966C53.9452,-63.9827 53.9452,-54.7125 53.9452,-46.1124"/>
<polygon fill="black" stroke="black" points="57.4453,-46.1043 53.9452,-36.1043 50.4453,-46.1044 57.4453,-46.1043"/>
</g>
<!-- PyramidalNode -->
<g id="node6" class="node"><title>PyramidalNode</title>
<ellipse fill="none" stroke="black" cx="287.945" cy="-18" rx="66.0889" ry="18"/>
<text text-anchor="middle" x="287.945" y="-14.3" font-family="Times,serif" font-size="14.00">PyramidalNode</text>
</g>
<!-- InnerNode&#45;&gt;PyramidalNode -->
<g id="edge5" class="edge"><title>InnerNode&#45;&gt;PyramidalNode</title>
<path fill="none" stroke="black" d="M287.945,-71.6966C287.945,-63.9827 287.945,-54.7125 287.945,-46.1124"/>
<polygon fill="black" stroke="black" points="291.445,-46.1043 287.945,-36.1043 284.445,-46.1044 291.445,-46.1043"/>
</g>
</g>
</svg>
