<?xml version="1.0" encoding="UTF-8" standalone="no"?>
<!DOCTYPE svg PUBLIC "-//W3C//DTD SVG 1.1//EN"
 "http://www.w3.org/Graphics/SVG/1.1/DTD/svg11.dtd">
<!-- Generated by graphviz version 2.38.0 (20140413.2041)
 -->
<!-- Title: Beziehungen Pages: 1 -->
<svg width="741pt" height="332pt"
 viewBox="0.00 0.00 741.14 332.00" xmlns="http://www.w3.org/2000/svg" xmlns:xlink="http://www.w3.org/1999/xlink">
<g id="graph0" class="graph" transform="scale(1 1) rotate(0) translate(4 328)">
<title>Beziehungen</title>
<polygon fill="white" stroke="none" points="-4,4 -4,-328 737.139,-328 737.139,4 -4,4"/>
<!-- Edge -->
<g id="node1" class="node"><title>Edge</title>
<ellipse fill="none" stroke="black" cx="484.945" cy="-306" rx="28.6953" ry="18"/>
<text text-anchor="middle" x="484.945" y="-302.3" font-family="Times,serif" font-size="14.00">Edge</text>
</g>
<!-- Edge&#45;&gt;Edge -->
<g id="edge1" class="edge"><title>Edge&#45;&gt;Edge</title>
<path fill="none" stroke="black" d="M506.031,-318.547C519.103,-321.573 531.543,-317.391 531.543,-306 531.543,-297.635 524.834,-293.157 516.092,-292.567"/>
<polygon fill="black" stroke="black" points="515.686,-289.089 506.031,-293.453 516.299,-296.062 515.686,-289.089"/>
</g>
<!-- Node -->
<g id="node2" class="node"><title>Node</title>
<ellipse fill="none" stroke="black" cx="544.945" cy="-234" rx="29.795" ry="18"/>
<text text-anchor="middle" x="544.945" y="-230.3" font-family="Times,serif" font-size="14.00">Node</text>
</g>
<!-- Edge&#45;&gt;Node -->
<g id="edge2" class="edge"><title>Edge&#45;&gt;Node</title>
<path fill="none" stroke="black" d="M497.964,-289.811C505.797,-280.673 515.932,-268.849 524.782,-258.524"/>
<polygon fill="black" stroke="black" points="527.686,-260.514 531.536,-250.644 522.371,-255.959 527.686,-260.514"/>
</g>
<!-- NodeEdge_Edge -->
<g id="node6" class="node"><title>NodeEdge_Edge</title>
<ellipse fill="none" stroke="black" cx="662.945" cy="-234" rx="70.3881" ry="18"/>
<text text-anchor="middle" x="662.945" y="-230.3" font-family="Times,serif" font-size="14.00">NodeEdge_Edge</text>
</g>
<!-- Edge&#45;&gt;NodeEdge_Edge -->
<g id="edge7" class="edge"><title>Edge&#45;&gt;NodeEdge_Edge</title>
<path fill="none" stroke="black" d="M508.582,-295.705C536.071,-284.894 582.1,-266.793 616.758,-253.164"/>
<polygon fill="black" stroke="black" points="618.182,-256.365 626.207,-249.448 615.62,-249.85 618.182,-256.365"/>
</g>
<!-- EdgeNode_Edge -->
<g id="node7" class="node"><title>EdgeNode_Edge</title>
<ellipse fill="none" stroke="black" cx="265.945" cy="-234" rx="70.3881" ry="18"/>
<text text-anchor="middle" x="265.945" y="-230.3" font-family="Times,serif" font-size="14.00">EdgeNode_Edge</text>
</g>
<!-- Edge&#45;&gt;EdgeNode_Edge -->
<g id="edge8" class="edge"><title>Edge&#45;&gt;EdgeNode_Edge</title>
<path fill="none" stroke="black" d="M459.823,-296.97C425.281,-285.929 362.317,-265.804 317.518,-251.484"/>
<polygon fill="black" stroke="black" points="318.559,-248.143 307.968,-248.432 316.428,-254.81 318.559,-248.143"/>
</g>
<!-- NodeNode_Edge -->
<g id="node8" class="node"><title>NodeNode_Edge</title>
<ellipse fill="none" stroke="black" cx="425.945" cy="-234" rx="71.4873" ry="18"/>
<text text-anchor="middle" x="425.945" y="-230.3" font-family="Times,serif" font-size="14.00">NodeNode_Edge</text>
</g>
<!-- Edge&#45;&gt;NodeNode_Edge -->
<g id="edge9" class="edge"><title>Edge&#45;&gt;NodeNode_Edge</title>
<path fill="none" stroke="black" d="M472.143,-289.811C464.762,-281.054 455.302,-269.83 446.867,-259.822"/>
<polygon fill="black" stroke="black" points="449.502,-257.517 440.381,-252.127 444.149,-262.029 449.502,-257.517"/>
</g>
<!-- Net -->
<g id="node3" class="node"><title>Net</title>
<ellipse fill="none" stroke="black" cx="543.945" cy="-90" rx="27" ry="18"/>
<text text-anchor="middle" x="543.945" y="-86.3" font-family="Times,serif" font-size="14.00">Net</text>
</g>
<!-- Node&#45;&gt;Net -->
<g id="edge3" class="edge"><title>Node&#45;&gt;Net</title>
<path fill="none" stroke="black" d="M540.481,-215.953C538.01,-205.63 535.193,-192.153 533.945,-180 532.311,-164.084 532.455,-159.93 533.945,-144 534.742,-135.478 536.245,-126.285 537.848,-117.986"/>
<polygon fill="black" stroke="black" points="541.301,-118.571 539.886,-108.071 534.444,-117.161 541.301,-118.571"/>
</g>
<!-- Layer -->
<g id="node5" class="node"><title>Layer</title>
<ellipse fill="none" stroke="black" cx="573.945" cy="-162" rx="31.3957" ry="18"/>
<text text-anchor="middle" x="573.945" y="-158.3" font-family="Times,serif" font-size="14.00">Layer</text>
</g>
<!-- Node&#45;&gt;Layer -->
<g id="edge5" class="edge"><title>Node&#45;&gt;Layer</title>
<path fill="none" stroke="black" d="M551.818,-216.411C555.164,-208.335 559.267,-198.431 563.027,-189.355"/>
<polygon fill="black" stroke="black" points="566.327,-190.534 566.92,-179.956 559.86,-187.855 566.327,-190.534"/>
</g>
<!-- MotorNode -->
<g id="node12" class="node"><title>MotorNode</title>
<ellipse fill="none" stroke="black" cx="133.945" cy="-162" rx="51.9908" ry="18"/>
<text text-anchor="middle" x="133.945" y="-158.3" font-family="Times,serif" font-size="14.00">MotorNode</text>
</g>
<!-- Node&#45;&gt;MotorNode -->
<g id="edge13" class="edge"><title>Node&#45;&gt;MotorNode</title>
<path fill="none" stroke="black" d="M522.226,-221.876C516.977,-219.652 511.346,-217.531 505.945,-216 448.383,-199.679 282.322,-179.536 192.8,-169.428"/>
<polygon fill="black" stroke="black" points="193.129,-165.943 182.801,-168.304 192.348,-172.899 193.129,-165.943"/>
</g>
<!-- PyramidalNode -->
<g id="node13" class="node"><title>PyramidalNode</title>
<ellipse fill="none" stroke="black" cx="370.945" cy="-162" rx="66.0889" ry="18"/>
<text text-anchor="middle" x="370.945" y="-158.3" font-family="Times,serif" font-size="14.00">PyramidalNode</text>
</g>
<!-- Node&#45;&gt;PyramidalNode -->
<g id="edge15" class="edge"><title>Node&#45;&gt;PyramidalNode</title>
<path fill="none" stroke="black" d="M521.495,-222.611C516.384,-220.394 510.995,-218.091 505.945,-216 476.653,-203.871 443.517,-190.851 417.404,-180.752"/>
<polygon fill="black" stroke="black" points="418.352,-177.366 407.763,-177.032 415.833,-183.897 418.352,-177.366"/>
</g>
<!-- Set -->
<g id="node4" class="node"><title>Set</title>
<ellipse fill="none" stroke="black" cx="543.945" cy="-18" rx="27" ry="18"/>
<text text-anchor="middle" x="543.945" y="-14.3" font-family="Times,serif" font-size="14.00">Set</text>
</g>
<!-- Net&#45;&gt;Set -->
<g id="edge4" class="edge"><title>Net&#45;&gt;Set</title>
<path fill="none" stroke="black" d="M543.945,-71.6966C543.945,-63.9827 543.945,-54.7125 543.945,-46.1124"/>
<polygon fill="black" stroke="black" points="547.445,-46.1043 543.945,-36.1043 540.445,-46.1044 547.445,-46.1043"/>
</g>
<!-- Layer&#45;&gt;Net -->
<g id="edge6" class="edge"><title>Layer&#45;&gt;Net</title>
<path fill="none" stroke="black" d="M566.836,-144.411C563.286,-136.129 558.913,-125.925 554.943,-116.662"/>
<polygon fill="black" stroke="black" points="558.16,-115.283 551.004,-107.47 551.726,-118.04 558.16,-115.283"/>
</g>
<!-- InputNode -->
<g id="node9" class="node"><title>InputNode</title>
<ellipse fill="none" stroke="black" cx="173.945" cy="-306" rx="48.1917" ry="18"/>
<text text-anchor="middle" x="173.945" y="-302.3" font-family="Times,serif" font-size="14.00">InputNode</text>
</g>
<!-- InnerNode -->
<g id="node10" class="node"><title>InnerNode</title>
<ellipse fill="none" stroke="black" cx="129.945" cy="-234" rx="48.1917" ry="18"/>
<text text-anchor="middle" x="129.945" y="-230.3" font-family="Times,serif" font-size="14.00">InnerNode</text>
</g>
<!-- InputNode&#45;&gt;InnerNode -->
<g id="edge10" class="edge"><title>InputNode&#45;&gt;InnerNode</title>
<path fill="none" stroke="black" d="M163.518,-288.411C158.28,-280.077 151.818,-269.797 145.966,-260.488"/>
<polygon fill="black" stroke="black" points="148.888,-258.56 140.603,-251.956 142.962,-262.285 148.888,-258.56"/>
</g>
<!-- InnerNode&#45;&gt;PyramidalNode -->
<g id="edge14" class="edge"><title>InnerNode&#45;&gt;PyramidalNode</title>
<path fill="none" stroke="black" d="M166.419,-222.066C173.237,-220.038 180.306,-217.946 186.945,-216 230.684,-203.178 280.352,-188.888 317.051,-178.38"/>
<polygon fill="black" stroke="black" points="318.391,-181.637 327.042,-175.521 316.465,-174.907 318.391,-181.637"/>
</g>
<!-- OutputNode -->
<g id="node11" class="node"><title>OutputNode</title>
<ellipse fill="none" stroke="black" cx="53.9452" cy="-306" rx="53.8905" ry="18"/>
<text text-anchor="middle" x="53.9452" y="-302.3" font-family="Times,serif" font-size="14.00">OutputNode</text>
</g>
<!-- OutputNode&#45;&gt;InnerNode -->
<g id="edge11" class="edge"><title>OutputNode&#45;&gt;InnerNode</title>
<path fill="none" stroke="black" d="M71.5722,-288.765C81.5227,-279.6 94.1193,-267.998 105.062,-257.919"/>
<polygon fill="black" stroke="black" points="107.692,-260.255 112.676,-250.906 102.949,-255.106 107.692,-260.255"/>
</g>
<!-- OutputNode&#45;&gt;MotorNode -->
<g id="edge12" class="edge"><title>OutputNode&#45;&gt;MotorNode</title>
<path fill="none" stroke="black" d="M54.4204,-287.769C55.6366,-268.936 59.7013,-238.455 72.9452,-216 80.1582,-203.771 91.2014,-192.928 101.919,-184.286"/>
<polygon fill="black" stroke="black" points="104.165,-186.975 109.983,-178.12 99.9131,-181.414 104.165,-186.975"/>
</g>
</g>
</svg>
