<?xml version="1.0" encoding="UTF-8" standalone="no"?>
<!DOCTYPE svg PUBLIC "-//W3C//DTD SVG 1.1//EN"
 "http://www.w3.org/Graphics/SVG/1.1/DTD/svg11.dtd">
<!-- Generated by graphviz version 2.38.0 (20140413.2041)
 -->
<!-- Title: %3 Pages: 1 -->
<svg width="384pt" height="188pt"
 viewBox="0.00 0.00 384.38 188.00" xmlns="http://www.w3.org/2000/svg" xmlns:xlink="http://www.w3.org/1999/xlink">
<g id="graph0" class="graph" transform="scale(1 1) rotate(0) translate(4 184)">
<title>%3</title>
<polygon fill="white" stroke="none" points="-4,4 -4,-184 380.385,-184 380.385,4 -4,4"/>
<!-- InputNode -->
<g id="node1" class="node"><title>InputNode</title>
<ellipse fill="none" stroke="black" cx="48.0957" cy="-162" rx="48.1917" ry="18"/>
<text text-anchor="middle" x="48.0957" y="-158.3" font-family="Times,serif" font-size="14.00">InputNode</text>
</g>
<!-- InnerNode -->
<g id="node2" class="node"><title>InnerNode</title>
<ellipse fill="none" stroke="black" cx="49.0957" cy="-90" rx="48.1917" ry="18"/>
<text text-anchor="middle" x="49.0957" y="-86.3" font-family="Times,serif" font-size="14.00">InnerNode</text>
</g>
<!-- InputNode&#45;&gt;InnerNode -->
<g id="edge1" class="edge"><title>InputNode&#45;&gt;InnerNode</title>
<path fill="none" stroke="black" d="M48.3429,-143.697C48.4531,-135.983 48.5856,-126.712 48.7084,-118.112"/>
<polygon fill="black" stroke="black" points="52.2081,-118.153 48.8514,-108.104 45.2088,-118.053 52.2081,-118.153"/>
</g>
<!-- PyramidalNode -->
<g id="node7" class="node"><title>PyramidalNode</title>
<ellipse fill="none" stroke="black" cx="219.096" cy="-18" rx="66.0889" ry="18"/>
<text text-anchor="middle" x="219.096" y="-14.3" font-family="Times,serif" font-size="14.00">PyramidalNode</text>
</g>
<!-- InnerNode&#45;&gt;PyramidalNode -->
<g id="edge8" class="edge"><title>InnerNode&#45;&gt;PyramidalNode</title>
<path fill="none" stroke="black" d="M80.2764,-76.1609C106.83,-65.2271 145.288,-49.3916 174.995,-37.1593"/>
<polygon fill="black" stroke="black" points="176.392,-40.3691 184.306,-33.3252 173.727,-33.8964 176.392,-40.3691"/>
</g>
<!-- OutputNode -->
<g id="node3" class="node"><title>OutputNode</title>
<ellipse fill="none" stroke="black" cx="168.096" cy="-162" rx="53.8905" ry="18"/>
<text text-anchor="middle" x="168.096" y="-158.3" font-family="Times,serif" font-size="14.00">OutputNode</text>
</g>
<!-- OutputNode&#45;&gt;InnerNode -->
<g id="edge2" class="edge"><title>OutputNode&#45;&gt;InnerNode</title>
<path fill="none" stroke="black" d="M142.567,-145.983C124.998,-135.649 101.487,-121.818 82.4395,-110.614"/>
<polygon fill="black" stroke="black" points="84.1612,-107.566 73.7673,-105.513 80.612,-113.6 84.1612,-107.566"/>
</g>
<!-- MotorNode -->
<g id="node5" class="node"><title>MotorNode</title>
<ellipse fill="none" stroke="black" cx="167.096" cy="-90" rx="51.9908" ry="18"/>
<text text-anchor="middle" x="167.096" y="-86.3" font-family="Times,serif" font-size="14.00">MotorNode</text>
</g>
<!-- OutputNode&#45;&gt;MotorNode -->
<g id="edge4" class="edge"><title>OutputNode&#45;&gt;MotorNode</title>
<path fill="none" stroke="black" d="M167.849,-143.697C167.738,-135.983 167.606,-126.712 167.483,-118.112"/>
<polygon fill="black" stroke="black" points="170.983,-118.053 167.34,-108.104 163.983,-118.153 170.983,-118.053"/>
</g>
<!-- ReceptorNode -->
<g id="node6" class="node"><title>ReceptorNode</title>
<ellipse fill="none" stroke="black" cx="299.096" cy="-90" rx="61.99" ry="18"/>
<text text-anchor="middle" x="299.096" y="-86.3" font-family="Times,serif" font-size="14.00">ReceptorNode</text>
</g>
<!-- OutputNode&#45;&gt;ReceptorNode -->
<g id="edge6" class="edge"><title>OutputNode&#45;&gt;ReceptorNode</title>
<path fill="none" stroke="black" d="M195.558,-146.326C214.772,-136.059 240.669,-122.22 261.757,-110.952"/>
<polygon fill="black" stroke="black" points="263.595,-113.938 270.765,-106.138 260.296,-107.764 263.595,-113.938"/>
</g>
<!-- Node -->
<g id="node4" class="node"><title>Node</title>
<ellipse fill="none" stroke="black" cx="299.096" cy="-162" rx="29.795" ry="18"/>
<text text-anchor="middle" x="299.096" y="-158.3" font-family="Times,serif" font-size="14.00">Node</text>
</g>
<!-- Node&#45;&gt;MotorNode -->
<g id="edge3" class="edge"><title>Node&#45;&gt;MotorNode</title>
<path fill="none" stroke="black" d="M277.299,-149.441C257.259,-138.814 227.156,-122.85 203.474,-110.292"/>
<polygon fill="black" stroke="black" points="204.896,-107.084 194.421,-105.491 201.616,-113.268 204.896,-107.084"/>
</g>
<!-- Node&#45;&gt;ReceptorNode -->
<g id="edge5" class="edge"><title>Node&#45;&gt;ReceptorNode</title>
<path fill="none" stroke="black" d="M299.096,-143.697C299.096,-135.983 299.096,-126.712 299.096,-118.112"/>
<polygon fill="black" stroke="black" points="302.596,-118.104 299.096,-108.104 295.596,-118.104 302.596,-118.104"/>
</g>
<!-- Node&#45;&gt;PyramidalNode -->
<g id="edge7" class="edge"><title>Node&#45;&gt;PyramidalNode</title>
<path fill="none" stroke="black" d="M322.621,-150.63C339.238,-141.896 360.237,-127.663 370.096,-108 377.267,-93.6973 379.348,-85.0534 370.096,-72 352.052,-46.5443 320.78,-33.2232 291.358,-26.2889"/>
<polygon fill="black" stroke="black" points="291.984,-22.8436 281.473,-24.1738 290.519,-29.6887 291.984,-22.8436"/>
</g>
</g>
</svg>
